# xmcd
#
# Track frame offsets:
# 150
# 11504
# 22295
# 35940
# 47595
# 64412
# 78036
# 88490
# 100322
# 112754
#
# Disc length: 1835 seconds
#
#
# Revision: 0
# Processed by: cddbd v1.5.1PL0 Copyright (c) Steve Scherf et al.
# Submitted via: FreeRIP 2.80 
#
DISCID=8107290a
DTITLE=Howling Wolf - The Hits
DYEAR=1900
DGENRE=Oldies
TTITLE0=Builf for comfort
TTITLE1=Wang Dang Doodle
TTITLE2=Highway 49
TTITLE3=Aint Supertitious
TTITLE4=Going down slow
TTITLE5=I walked from Dallas
TTITLE6=Hold on to your money
TTITLE7=Cause of it all
TTITLE8=bee bopp
TTITLE9=Killing floor
EXTD=
EXTT0=
EXTT1=
EXTT2=
EXTT3=
EXTT4=
EXTT5=
EXTT6=
EXTT7=
EXTT8=
EXTT9=
PLAYORDER=
